<svg width="32" height="33" viewBox="0 0 32 33" fill="none" xmlns="http://www.w3.org/2000/svg">
<path d="M24 3.25879V5.92546M7.99998 3.25879V5.92546M15.9946 17.9255H16.0053M15.9946 23.2588H16.0053M21.3213 17.9255H21.3333M10.6666 17.9255H10.6786M10.6666 23.2588H10.6786M4.66665 11.2588H27.3333M3.99998 11.2588H28M3.33331 16.9161C3.33331 11.1068 3.33331 8.20146 5.00265 6.39612C6.67198 4.59212 9.35998 4.59212 14.7333 4.59212H17.2666C22.64 4.59212 25.328 4.59212 26.9973 6.39746C28.6666 8.20146 28.6666 11.1068 28.6666 16.9175V17.6015C28.6666 23.4108 28.6666 26.3161 26.9973 28.1215C25.328 29.9255 22.64 29.9255 17.2666 29.9255H14.7333C9.35998 29.9255 6.67198 29.9255 5.00265 28.1201C3.33331 26.3161 3.33331 23.4108 3.33331 17.6001V16.9161Z" stroke="white" stroke-width="2" stroke-linecap="round" stroke-linejoin="round"/>
</svg>
