<svg width="32" height="32" viewBox="0 0 32 32" fill="none" xmlns="http://www.w3.org/2000/svg">
<path d="M12 29.3337C12.4798 29.3337 14.2544 28.5238 16.0658 26.904M16.0658 26.904C17.6104 25.5228 19.1818 23.5528 20 20.9939C21.7778 15.434 11.1111 20.9939 14.6667 25.6271C15.1041 26.1972 15.5753 26.6138 16.0658 26.904ZM16.0658 26.904C18.2028 28.1682 20.7081 27.0324 22.4055 25.7262C22.9243 25.327 23.1837 25.1274 23.3385 25.1896C23.4933 25.2517 23.5838 25.6089 23.7648 26.3233C24.3441 28.6095 26.0553 30.455 28 27.481" stroke="white" stroke-width="2" stroke-linecap="round" stroke-linejoin="round"/>
<path d="M26.667 17.334L26.667 10.5216C26.667 8.23581 26.667 7.09291 26.3097 6.1801C25.7353 4.71264 24.5206 3.55512 22.9806 3.00778C22.0227 2.66732 20.8233 2.66732 18.4246 2.66732C14.2267 2.66732 12.1278 2.66732 10.4515 3.26313C7.75651 4.22096 5.63074 6.24662 4.62557 8.81468C4.00032 10.4121 4.00032 12.4122 4.00032 16.4123L4.00032 19.8486C4.00032 23.9921 4.00032 26.0638 5.13059 27.5026C5.45443 27.9148 5.83848 28.2808 6.27108 28.5894C6.76054 28.9385 7.31981 29.1745 8.00032 29.334" stroke="white" stroke-width="2" stroke-linecap="round" stroke-linejoin="round"/>
<path d="M3.99968 16C3.99968 13.5454 5.98952 11.5556 8.44412 11.5556C9.33183 11.5556 10.3784 11.7111 11.2415 11.4798C12.0084 11.2744 12.6074 10.6754 12.8128 9.90849C13.0441 9.04538 12.8886 7.99882 12.8886 7.11111C12.8886 4.65651 14.8784 2.66667 17.333 2.66667" stroke="white" stroke-width="2" stroke-linecap="round" stroke-linejoin="round"/>
</svg>
