<svg width="32" height="32" viewBox="0 0 32 32" fill="none" xmlns="http://www.w3.org/2000/svg">
<path d="M23.44 12.9463C21.5402 12.4274 19.5157 12.6274 17.7542 13.5082C15.9928 14.3889 14.618 15.8885 13.8933 17.7197M23.44 12.9463C24.6036 13.2645 25.6803 13.8418 26.5893 14.6349C27.4983 15.428 28.2162 16.4164 28.6892 17.5262C29.1622 18.636 29.3781 19.8383 29.3208 21.0434C29.2634 22.2484 28.9343 23.4248 28.358 24.4846C27.7817 25.5444 26.9732 26.4602 25.993 27.1634C25.0127 27.8666 23.8862 28.339 22.6975 28.5452C21.5089 28.7515 20.2891 28.6862 19.1292 28.3544C17.9694 28.0226 16.8996 27.4327 16 26.629M23.44 12.9463C23.9195 11.7331 24.095 10.421 23.9513 9.12436C23.8075 7.82774 23.3489 6.58594 22.6153 5.50718C21.8817 4.42842 20.8954 3.54544 19.7424 2.93517C18.5893 2.3249 17.3046 2.00586 16 2.00586C14.6954 2.00586 13.4106 2.3249 12.2576 2.93517C11.1046 3.54544 10.1183 4.42842 9.38471 5.50718C8.65111 6.58594 8.19245 7.82774 8.0487 9.12436C7.90496 10.421 8.08048 11.7331 8.55999 12.9463M13.8933 17.7197C13.5225 18.6578 13.3325 19.6576 13.3333 20.6663C13.3333 23.0357 14.364 25.165 16 26.629M13.8933 17.7197C12.6952 17.3918 11.5897 16.79 10.6641 15.9615C9.73852 15.1331 9.01819 14.1009 8.55999 12.9463M16 26.629C15.1003 27.4327 14.0306 28.0226 12.8707 28.3544C11.7109 28.6862 10.491 28.7515 9.30243 28.5452C8.11382 28.339 6.98725 27.8666 6.00701 27.1634C5.02678 26.4602 4.21827 25.5444 3.64198 24.4846C3.0657 23.4248 2.73657 22.2484 2.67921 21.0434C2.62186 19.8383 2.83777 18.636 3.31079 17.5262C3.78381 16.4164 4.50169 15.428 5.41071 14.6349C6.31973 13.8418 7.39634 13.2645 8.55999 12.9463" stroke="white" stroke-width="2" stroke-linecap="round" stroke-linejoin="round"/>
</svg>
