<svg width="32" height="32" viewBox="0 0 32 32" fill="none" xmlns="http://www.w3.org/2000/svg">
<path d="M16 20L16 22" stroke="white" stroke-width="2" stroke-linecap="round" stroke-linejoin="round"/>
<path d="M4 20C4.19909 23.91 4.40762 25.9621 5.86415 27.2596C7.44365 28.6667 9.90739 28.6667 14.8349 28.6667H17.1651C22.0926 28.6667 24.5563 28.6667 26.1358 27.2596C27.5924 25.9621 27.8009 23.91 28 20" stroke="white" stroke-width="2" stroke-linecap="round" stroke-linejoin="round"/>
<path d="M3.79592 13.9241C6.06165 18.2326 11.1719 20 15.9997 20C20.8274 20 25.9377 18.2326 28.2034 13.9241C29.285 11.8674 28.466 8 25.8023 8H6.19701C3.53332 8 2.71438 11.8674 3.79592 13.9241Z" stroke="white" stroke-width="2"/>
<path d="M21.3327 7.99967L21.2149 7.58759C20.6283 5.5342 20.3349 4.5075 19.6366 3.92025C18.9382 3.33301 18.0106 3.33301 16.1553 3.33301H15.8434C13.9881 3.33301 13.0605 3.33301 12.3621 3.92025C11.6638 4.5075 11.3704 5.5342 10.7838 7.58759L10.666 7.99967" stroke="white" stroke-width="2"/>
</svg>
