<svg width="32" height="32" viewBox="0 0 32 32" fill="none" xmlns="http://www.w3.org/2000/svg">
<path d="M18.9733 23.9936C18.96 22.9936 18.272 19.6816 18.9733 18.9803C19.676 18.2776 22.9867 18.9669 23.9867 18.9803M28 27.9989L19.4867 19.4883M13.0267 23.9936C13.04 22.9936 13.728 19.6816 13.0253 18.9803C12.3227 18.2776 9.012 18.9669 8.01333 18.9803M4 27.9989L12.5133 19.4883M8.01067 13.0149C9.01067 13.0283 12.3213 13.7109 13.0227 13.0083C13.724 12.3056 13.0307 8.99493 13.0147 7.99493M12.5027 12.4896L4.00267 4.00293M23.9893 13.0149C22.9893 13.0283 19.6773 13.7109 18.976 13.0083C18.2747 12.3056 18.9693 8.99493 18.984 7.99493M19.496 12.4896L27.996 4.00293" stroke="white" stroke-width="2" stroke-linecap="round" stroke-linejoin="round"/>
</svg>
