<svg width="16" height="16" viewBox="0 0 16 16" fill="none" xmlns="http://www.w3.org/2000/svg">
<path d="M14.0004 7.85095C14.4144 7.85188 14.7491 8.18789 14.7484 8.60193C14.7461 9.80537 14.7322 10.7936 14.6039 11.5873C14.472 12.4027 14.2078 13.094 13.6508 13.6508C13.0489 14.2527 12.291 14.5122 11.391 14.6332C10.5127 14.7512 9.39282 14.7494 8.00037 14.7494C6.60758 14.7494 5.48704 14.7513 4.60877 14.6332C3.70895 14.5121 2.95178 14.2525 2.34998 13.6508C1.74808 13.0489 1.48857 12.291 1.36756 11.391C1.2495 10.5127 1.25134 9.39282 1.25134 8.00037C1.25134 6.60761 1.24945 5.48719 1.36756 4.60877C1.48855 3.70891 1.74734 2.95084 2.349 2.349C2.90575 1.7918 3.59794 1.52877 4.41345 1.39685C5.20711 1.26849 6.19533 1.25365 7.39881 1.25134C7.81291 1.25067 8.14899 1.58623 8.14978 2.00037C8.15033 2.41427 7.81566 2.7504 7.40174 2.75134C6.17328 2.7537 5.3077 2.77137 4.65271 2.87732C4.0196 2.97974 3.6671 3.15276 3.41052 3.40955L3.31091 3.51892C3.08958 3.78874 2.94119 4.16696 2.85486 4.80896C2.75335 5.56416 2.75134 6.56534 2.75134 8.00037C2.75134 9.43538 2.75332 10.4366 2.85486 11.1918C2.95352 11.9251 3.13381 12.3135 3.41052 12.5902C3.68733 12.867 4.07561 13.0472 4.80896 13.1459C5.56402 13.2474 6.56516 13.2494 8.00037 13.2494C9.43538 13.2494 10.4366 13.2474 11.1918 13.1459C11.9252 13.0472 12.3135 12.8669 12.5902 12.5902L12.683 12.4886C12.8894 12.2407 13.0329 11.9018 13.1224 11.348C13.2284 10.693 13.2461 9.82745 13.2484 8.599C13.2493 8.1849 13.5862 7.85016 14.0004 7.85095ZM10.6263 1.3031C10.861 1.29976 11.5549 1.28963 12.2357 1.32361C12.5737 1.34049 12.929 1.36918 13.2318 1.41931C13.3825 1.44426 13.5401 1.47741 13.684 1.52478C13.7854 1.5582 13.9451 1.62252 14.0941 1.73963C14.1253 1.76237 14.1559 1.78667 14.184 1.81482H14.1849C14.213 1.84301 14.2365 1.87442 14.2592 1.90564C14.376 2.05476 14.4406 2.21437 14.474 2.3158C14.5212 2.45948 14.5545 2.61641 14.5795 2.76697C14.6296 3.07023 14.6583 3.42652 14.6752 3.76502C14.7092 4.44646 14.699 5.14039 14.6957 5.37537C14.6898 5.78952 14.3491 6.12051 13.9349 6.11462C13.521 6.10852 13.1898 5.76791 13.1957 5.35388C13.1989 5.12407 13.2073 4.49413 13.1781 3.87732L10.4847 6.56482C10.1915 6.85734 9.71574 6.85711 9.42322 6.56384C9.13086 6.27059 9.13202 5.79578 9.42517 5.5033L12.1146 2.8197C11.5011 2.791 10.8761 2.79888 10.6478 2.80212C10.2337 2.80792 9.89298 2.47698 9.88709 2.06287C9.88146 1.64903 10.2125 1.30917 10.6263 1.3031Z" fill="white"/>
</svg>
