<svg width="32" height="33" viewBox="0 0 32 33" fill="none" xmlns="http://www.w3.org/2000/svg">
<path d="M28.4444 16.6653V16.5197C28.4444 13.3775 28.4444 11.8058 27.7015 10.5439C26.9573 9.28079 25.6183 8.57893 22.9415 7.17395L20.4526 5.86728C18.2674 4.71991 17.1748 4.14746 16 4.14746C14.8252 4.14746 13.7326 4.72115 11.5474 5.86853L9.05849 7.17519C6.38169 8.57893 5.04267 9.28204 4.29849 10.5451C3.55556 11.807 3.55556 13.3787 3.55556 16.521V16.6666C3.55556 19.8063 3.55556 21.378 4.29849 22.6399C5.04267 23.903 6.38169 24.6049 9.05849 26.0099L11.5474 27.3165C13.7326 28.4639 14.8252 29.0363 16 29.0363M27.2 10.9919L22.2222 13.4808M22.2222 13.4808L21.6 13.7919L16 16.5919M22.2222 13.4808V19.2586M22.2222 13.4808L10.4 7.25857M16 16.5919L4.8 10.9919M16 16.5919V28.4141" stroke="white" stroke-width="2" stroke-linecap="round"/>
<path d="M22 25.2588L24.7471 27.9255L29.3333 23.2588" stroke="white" stroke-width="2" stroke-linecap="round" stroke-linejoin="round"/>
</svg>
