<svg width="32" height="32" viewBox="0 0 32 32" fill="none" xmlns="http://www.w3.org/2000/svg">
<g clip-path="url(#clip0_2253_10038)">
<path d="M11 4H21" stroke="white" stroke-width="2" stroke-linecap="round" stroke-linejoin="round"/>
<path d="M19.0003 4V12.3925L26.8566 25.485C26.9477 25.6367 26.9969 25.8098 26.9993 25.9867C27.0016 26.1636 26.957 26.338 26.8699 26.492C26.7829 26.6461 26.6565 26.7742 26.5037 26.8635C26.351 26.9527 26.1772 26.9998 26.0003 27H6.00031C5.82327 27.0001 5.64939 26.9531 5.49644 26.864C5.34348 26.7748 5.21694 26.6467 5.12973 26.4926C5.04253 26.3385 4.99779 26.164 5.00008 25.987C5.00238 25.81 5.05163 25.6368 5.14281 25.485L13.0003 12.3925V4" stroke="white" stroke-width="2" stroke-linecap="round" stroke-linejoin="round"/>
<path d="M8.95312 19.1351C10.6069 18.8251 12.9531 18.9588 15.9994 20.5001C20.0306 22.5413 22.8431 22.1138 24.4369 21.4563" stroke="white" stroke-width="2" stroke-linecap="round" stroke-linejoin="round"/>
</g>
<defs>
<clipPath id="clip0_2253_10038">
<rect width="32" height="32" fill="white"/>
</clipPath>
</defs>
</svg>
