<svg width="32" height="32" viewBox="0 0 32 32" fill="none" xmlns="http://www.w3.org/2000/svg">
<path d="M16.0003 2.66699C8.63766 2.66699 2.66699 8.37899 2.66699 15.423C2.66699 18.807 4.04433 21.883 6.29233 24.1643C6.78699 24.667 7.11766 25.3537 6.98433 26.0603C6.76727 27.2076 6.26932 28.2832 5.53499 29.191C7.4574 29.5423 9.44212 29.2336 11.167 28.315C11.7723 27.9937 12.075 27.8323 12.2897 27.8003C12.5043 27.7683 12.8097 27.8243 13.4203 27.939C14.271 28.099 15.135 28.179 16.0003 28.179C23.363 28.179 29.3337 22.467 29.3337 15.423C29.3337 14.2363 29.1643 13.0897 28.8483 12.0003" stroke="white" stroke-width="2" stroke-linecap="round" stroke-linejoin="round"/>
<path d="M18.667 8.00033C18.667 8.00033 20.0003 8.00033 21.3337 10.667C21.3337 10.667 25.5697 4.00033 29.3337 2.66699M15.995 16.0003H16.0057M21.3217 16.0003H21.3337M10.667 16.0003H10.679" stroke="white" stroke-width="2" stroke-linecap="round" stroke-linejoin="round"/>
</svg>
