<svg width="32" height="32" viewBox="0 0 32 32" fill="none" xmlns="http://www.w3.org/2000/svg">
<path d="M26.3271 17.3333C27.2634 15.9874 27.8287 14.4185 27.9659 12.7847C28.1032 11.1509 27.8077 9.50972 27.1091 8.02642C26.4104 6.54312 25.3334 5.27003 23.9864 4.33528C22.6394 3.40054 21.0699 2.83714 19.4359 2.70178C17.8019 2.56643 16.1611 2.8639 14.6786 3.56426C13.1961 4.26462 11.9243 5.34314 10.9911 6.69127C10.058 8.0394 9.49642 9.60957 9.36299 11.2437C9.22956 12.8779 9.52897 14.5183 10.2311 16" stroke="white" stroke-width="2" stroke-linecap="round" stroke-linejoin="round"/>
<path d="M18.6667 8.00033C17.1933 8.00033 16 8.89633 16 10.0003C16 11.1043 17.1933 12.0003 18.6667 12.0003C20.14 12.0003 21.3333 12.8963 21.3333 14.0003C21.3333 15.1043 20.14 16.0003 18.6667 16.0003M18.6667 8.00033C19.8267 8.00033 20.816 8.55633 21.1813 9.33366M18.6667 8.00033V6.66699M18.6667 16.0003C17.5067 16.0003 16.5173 15.4443 16.152 14.667M18.6667 16.0003V17.3337M4 18.667H7.19333C7.58533 18.667 7.972 18.755 8.32267 18.9257L11.0453 20.243C11.396 20.4123 11.7827 20.5003 12.176 20.5003H13.5653C14.9093 20.5003 16 21.555 16 22.8563C16 22.9097 15.964 22.955 15.912 22.9697L12.524 23.907C11.9161 24.0749 11.2678 24.0162 10.7 23.7417L7.78933 22.3337M16 22.0003L22.124 20.119C22.6571 19.9554 23.2283 19.9644 23.7561 20.1447C24.2838 20.325 24.7411 20.6674 25.0627 21.123C25.5547 21.803 25.3547 22.779 24.6373 23.1923L14.6173 28.975C14.304 29.1563 13.9571 29.2719 13.5977 29.3147C13.2382 29.3576 12.8738 29.3268 12.5267 29.2243L4 26.6937" stroke="white" stroke-width="2" stroke-linecap="round" stroke-linejoin="round"/>
</svg>
