<svg width="32" height="32" viewBox="0 0 32 32" fill="none" xmlns="http://www.w3.org/2000/svg">
<path d="M4.08267 19.2543L4.56933 16.3983C5.14533 13.021 5.432 11.3317 6.572 10.3317C7.712 9.33301 9.34933 9.33301 12.6227 9.33301H19.3773C22.6507 9.33301 24.288 9.33301 25.428 10.333C26.568 11.333 26.8547 13.021 27.4307 16.3983L27.9173 19.2543C28.7147 23.9277 29.112 26.2637 27.8867 27.7983C26.66 29.333 24.3933 29.333 19.864 29.333H12.136C7.60533 29.333 5.34 29.333 4.11333 27.7997C2.88667 26.2637 3.28667 23.9277 4.08267 19.2543Z" stroke="white" stroke-width="2" stroke-linecap="round" stroke-linejoin="round"/>
<path d="M10 11.9997L10.2867 7.98633C10.3902 6.54179 11.0372 5.1901 12.0972 4.20333C13.1573 3.21656 14.5518 2.66797 16 2.66797C17.4482 2.66797 18.8427 3.21656 19.9028 4.20333C20.9628 5.1901 21.6098 6.54179 21.7133 7.98633L22 11.9997" stroke="white" stroke-width="2" stroke-linecap="round" stroke-linejoin="round"/>
</svg>
