<svg width="32" height="32" viewBox="0 0 32 32" fill="none" xmlns="http://www.w3.org/2000/svg">
<g clip-path="url(#clip0_2253_10025)">
<path d="M10.5334 21.4659L3.64718 18.9284C3.4573 18.8583 3.29347 18.7317 3.17775 18.5657C3.06204 18.3996 3 18.2021 3 17.9997C3 17.7973 3.06204 17.5997 3.17775 17.4337C3.29347 17.2676 3.4573 17.141 3.64718 17.0709L10.5334 14.5334L13.0709 7.64718C13.141 7.4573 13.2676 7.29347 13.4337 7.17775C13.5997 7.06204 13.7973 7 13.9997 7C14.2021 7 14.3996 7.06204 14.5657 7.17775C14.7317 7.29347 14.8583 7.4573 14.9284 7.64718L17.4659 14.5334L24.3522 17.0709C24.5421 17.141 24.7059 17.2676 24.8216 17.4337C24.9373 17.5997 24.9994 17.7973 24.9994 17.9997C24.9994 18.2021 24.9373 18.3996 24.8216 18.5657C24.7059 18.7317 24.5421 18.8583 24.3522 18.9284L17.4659 21.4659L14.9284 28.3522C14.8583 28.5421 14.7317 28.7059 14.5657 28.8216C14.3996 28.9373 14.2021 28.9994 13.9997 28.9994C13.7973 28.9994 13.5997 28.9373 13.4337 28.8216C13.2676 28.7059 13.141 28.5421 13.0709 28.3522L10.5334 21.4659Z" stroke="white" stroke-width="2" stroke-linecap="round" stroke-linejoin="round"/>
<path d="M22 2V8" stroke="white" stroke-width="2" stroke-linecap="round" stroke-linejoin="round"/>
<path d="M28 9V13" stroke="white" stroke-width="2" stroke-linecap="round" stroke-linejoin="round"/>
<path d="M19 5H25" stroke="white" stroke-width="2" stroke-linecap="round" stroke-linejoin="round"/>
<path d="M26 11H30" stroke="white" stroke-width="2" stroke-linecap="round" stroke-linejoin="round"/>
</g>
<defs>
<clipPath id="clip0_2253_10025">
<rect width="32" height="32" fill="white"/>
</clipPath>
</defs>
</svg>
