<svg width="32" height="32" viewBox="0 0 32 32" fill="none" xmlns="http://www.w3.org/2000/svg">
<path d="M23.3337 18.0005V20.0005C23.3337 24.4005 23.3337 26.6005 21.967 27.9658C20.6003 29.3312 18.4003 29.3338 14.0003 29.3338C9.60033 29.3338 7.40033 29.3338 6.03366 27.9672C4.66699 26.6005 4.66699 24.4005 4.66699 20.0005V12.0005C4.66699 7.60049 4.66699 5.40049 6.03366 4.03383C7.17633 2.89249 8.89899 2.70449 12.0003 2.67383" stroke="white" stroke-width="2" stroke-linecap="round" stroke-linejoin="round"/>
<path d="M21.3337 2.66699C19.4323 2.66699 18.2003 3.87899 16.7443 4.32033C16.1523 4.49899 15.8563 4.58966 15.7363 4.71633C15.6163 4.84299 15.5817 5.02699 15.511 5.39633C14.7603 9.35499 16.4017 13.0137 20.3177 14.4363C20.7377 14.591 20.9483 14.667 21.335 14.667C21.7217 14.667 21.931 14.591 22.3523 14.4377C26.267 13.0137 27.907 9.35499 27.1563 5.39766C27.0857 5.02699 27.0497 4.84166 26.931 4.71633C26.8123 4.59099 26.515 4.49899 25.923 4.32033C24.4657 3.87899 23.2323 2.66699 21.3323 2.66699M12.667 25.3337H15.3337" stroke="white" stroke-width="2" stroke-linecap="round" stroke-linejoin="round"/>
</svg>
