<svg width="32" height="33" viewBox="0 0 32 33" fill="none" xmlns="http://www.w3.org/2000/svg">
<path d="M9.33334 22.9329V17.5996M16 22.9329V9.59961M22.6667 22.9329V14.9329M3.33334 16.2663C3.33334 10.2956 3.33334 7.30894 5.188 5.45428C7.04267 3.59961 10.028 3.59961 16 3.59961C21.9707 3.59961 24.9573 3.59961 26.812 5.45428C28.6667 7.30894 28.6667 10.2943 28.6667 16.2663C28.6667 22.2369 28.6667 25.2236 26.812 27.0783C24.9573 28.9329 21.972 28.9329 16 28.9329C10.0293 28.9329 7.04267 28.9329 5.188 27.0783C3.33334 25.2236 3.33334 22.2383 3.33334 16.2663Z" stroke="white" stroke-width="2" stroke-linecap="round" stroke-linejoin="round"/>
</svg>
