<svg width="32" height="32" viewBox="0 0 32 32" fill="none" xmlns="http://www.w3.org/2000/svg">
<path d="M27.699 23.9997C28.699 23.9997 29.4924 23.3717 30.2057 22.493C31.667 20.693 29.2684 19.253 28.3537 18.5503C27.4244 17.8343 26.3857 17.4277 25.3337 17.333M24.0004 14.6663C24.8844 14.6663 25.7323 14.3152 26.3574 13.69C26.9825 13.0649 27.3337 12.2171 27.3337 11.333C27.3337 10.449 26.9825 9.60111 26.3574 8.97599C25.7323 8.35086 24.8844 7.99967 24.0004 7.99967M4.30169 23.9997C3.30169 23.9997 2.50836 23.3717 1.79503 22.493C0.333692 20.693 2.73236 19.253 3.64703 18.5503C4.57636 17.8343 5.61369 17.4263 6.66703 17.333M7.33369 14.6663C6.44964 14.6663 5.60179 14.3152 4.97667 13.69C4.35155 13.0649 4.00036 12.2171 4.00036 11.333C4.00036 10.449 4.35155 9.60111 4.97667 8.97599C5.60179 8.35086 6.44964 7.99967 7.33369 7.99967M10.779 20.1477C9.41636 20.9903 5.84436 22.7103 8.01903 24.8623C9.08436 25.9143 10.267 26.6663 11.7564 26.6663H20.247C21.7364 26.6663 22.919 25.9143 23.9817 24.8623C26.1577 22.7103 22.5857 20.9903 21.223 20.1477C19.6535 19.1797 17.8457 18.667 16.0017 18.667C14.1576 18.667 12.3499 19.1797 10.7804 20.1477M20.667 9.99967C20.667 10.6125 20.5463 11.2193 20.3118 11.7855C20.0773 12.3517 19.7335 12.8662 19.3002 13.2995C18.8669 13.7328 18.3524 14.0766 17.7862 14.3111C17.22 14.5456 16.6132 14.6663 16.0004 14.6663C15.3875 14.6663 14.7807 14.5456 14.2145 14.3111C13.6483 14.0766 13.1339 13.7328 12.7005 13.2995C12.2672 12.8662 11.9234 12.3517 11.6889 11.7855C11.4544 11.2193 11.3337 10.6125 11.3337 9.99967C11.3337 8.762 11.8254 7.57501 12.7005 6.69984C13.5757 5.82467 14.7627 5.33301 16.0004 5.33301C17.238 5.33301 18.425 5.82467 19.3002 6.69984C20.1754 7.57501 20.667 8.762 20.667 9.99967Z" stroke="white" stroke-width="2" stroke-linecap="round" stroke-linejoin="round"/>
</svg>
