<svg width="32" height="32" viewBox="0 0 32 32" fill="none" xmlns="http://www.w3.org/2000/svg">
<path d="M8.58295 22.6663V13.3333C8.58295 12.9192 8.9189 12.5835 9.33295 12.5833C9.74716 12.5833 10.0829 12.9191 10.0829 13.3333V22.6663C10.0829 23.0806 9.74716 23.4163 9.33295 23.4163C8.9189 23.4161 8.58295 23.0804 8.58295 22.6663ZM21.9169 22.6663V17.3333C21.9169 16.9065 21.8322 16.4835 21.6689 16.0892C21.5056 15.6951 21.2664 15.3371 20.9648 15.0355C20.663 14.7337 20.3044 14.4937 19.9101 14.3304C19.516 14.1672 19.0935 14.0834 18.6669 14.0833C18.2401 14.0833 17.8171 14.1671 17.4228 14.3304C17.0285 14.4937 16.6699 14.7337 16.3681 15.0355C16.0666 15.3371 15.8273 15.6952 15.664 16.0892C15.5007 16.4835 15.4169 16.9065 15.4169 17.3333V22.6663C15.4169 23.0805 15.081 23.4162 14.6669 23.4163C14.2527 23.4163 13.9169 23.0806 13.9169 22.6663V13.3333C13.9169 12.9191 14.2527 12.5833 14.6669 12.5833C15.081 12.5835 15.4169 12.9192 15.4169 13.3333V13.8704C15.8345 13.4786 16.3188 13.1641 16.8486 12.9447C17.4249 12.7059 18.0432 12.5833 18.6669 12.5833C19.2906 12.5834 19.9081 12.706 20.4843 12.9447C21.0606 13.1834 21.5843 13.5339 22.0253 13.9749C22.4663 14.416 22.8159 14.9397 23.0546 15.5159C23.2933 16.0922 23.4169 16.7096 23.4169 17.3333V22.6663C23.4169 23.0805 23.081 23.4162 22.6669 23.4163C22.2527 23.4163 21.9169 23.0806 21.9169 22.6663ZM9.34369 8.58333C9.7579 8.58333 10.0937 8.91911 10.0937 9.33333C10.0937 9.74754 9.7579 10.0833 9.34369 10.0833H9.33197C8.91776 10.0833 8.58197 9.74754 8.58197 9.33333C8.58197 8.91911 8.91776 8.58333 9.33197 8.58333H9.34369Z" fill="white"/>
<path d="M27.9163 16.0003C27.9163 12.9931 27.9153 10.8128 27.6917 9.14973C27.471 7.5083 27.0463 6.48281 26.2816 5.71809C25.5169 4.95355 24.4913 4.52958 22.8499 4.30891C21.1867 4.08537 19.0067 4.08333 16.0003 4.08333C12.9931 4.08333 10.8128 4.08536 9.14972 4.30891C7.50834 4.52958 6.48278 4.95339 5.71808 5.71809C4.95337 6.4828 4.52957 7.50896 4.3089 9.15071C4.08537 10.8139 4.08331 12.9939 4.08331 16.0003C4.08331 19.0073 4.08536 21.1869 4.3089 22.8499C4.52954 24.4913 4.95344 25.5168 5.71808 26.2816C6.48279 27.0463 7.50895 27.4711 9.1507 27.6917C10.8139 27.9152 12.994 27.9163 16.0003 27.9163C19.0072 27.9163 21.1869 27.9153 22.8499 27.6917C24.4914 27.4711 25.5168 27.0463 26.2816 26.2816C27.0462 25.5169 27.471 24.4915 27.6917 22.8499C27.9153 21.1867 27.9163 19.0067 27.9163 16.0003ZM29.4163 16.0003C29.4163 18.9642 29.4181 21.2628 29.178 23.0491C28.935 24.8571 28.4321 26.2522 27.3421 27.3421C26.2522 28.432 24.8578 28.935 23.0501 29.1781C21.2639 29.4182 18.9649 29.4163 16.0003 29.4163C13.0362 29.4163 10.7369 29.4182 8.9505 29.1781C7.14262 28.935 5.74748 28.4321 4.65753 27.3421C3.56775 26.2522 3.0646 24.8578 2.82159 23.0501C2.58149 21.2639 2.58331 18.965 2.58331 16.0003C2.58331 13.0362 2.58149 10.7369 2.82159 8.95052C3.0646 7.14261 3.56758 5.7475 4.65753 4.65755C5.74746 3.56762 7.14269 3.06462 8.9505 2.82161C10.7367 2.58156 13.0358 2.58333 16.0003 2.58333C18.9641 2.58333 21.2628 2.58155 23.0491 2.82161C24.857 3.0646 26.2522 3.5677 27.3421 4.65755C28.432 5.74747 28.935 7.1427 29.178 8.95052C29.4181 10.7367 29.4163 13.0358 29.4163 16.0003Z" fill="white"/>
</svg>
