<svg width="24" height="24" viewBox="0 0 24 24" fill="none" xmlns="http://www.w3.org/2000/svg">
<path d="M19 7H18V6C18 3.24 15.76 1 13 1C10.24 1 8 3.24 8 6V7H7C5.89 7 5 7.9 5 9V20C5 21.1 5.9 22 7 22H19C20.1 22 21 21.1 21 20V9C21 7.9 20.11 7 19 7ZM10 6C10 4.34 11.34 3 13 3C14.66 3 16 4.34 16 6V7H10V6ZM19 20H7V9H19V20ZM12 12C10.34 12 9 13.34 9 15C9 16.66 10.34 18 12 18C13.66 18 15 16.66 15 15C15 13.34 13.66 12 12 12ZM13 15C13 15.55 12.55 16 12 16C11.45 16 11 15.55 11 15C11 14.45 11.45 14 12 14C12.55 14 13 14.45 13 15Z" fill="white"/>
</svg>