<svg width="24" height="24" viewBox="0 0 24 24" fill="none" xmlns="http://www.w3.org/2000/svg">
<path d="M12 2C6.48 2 2 6.48 2 12C2 17.52 6.48 22 12 22C17.52 22 22 17.52 22 12C22 6.48 17.52 2 12 2ZM12 20C7.59 20 4 16.41 4 12C4 7.59 7.59 4 12 4C16.41 4 20 7.59 20 12C20 16.41 16.41 20 12 20ZM12 6C9.79 6 8 7.79 8 10H10C10 8.9 10.9 8 12 8C13.1 8 14 8.9 14 10C14 11.1 13.1 12 12 12C10.9 12 10 12.9 10 14H12C12 13.1 12.9 12.2 14 12.2C15.1 12.2 16 13.1 16 14.2C16 15.3 15.1 16.2 14 16.2C12.9 16.2 12 17.1 12 18H14C14 17.1 14.9 16.2 16 16.2C17.1 16.2 18 17.1 18 18.2C18 19.3 17.1 20.2 16 20.2H18V22H12C6.48 22 2 17.52 2 12C2 6.48 6.48 2 12 2Z" fill="white"/>
</svg>