<svg width="32" height="32" viewBox="0 0 32 32" fill="none" xmlns="http://www.w3.org/2000/svg">
<path d="M28.5837 14.7164C28.5837 11.0165 28.5498 9.51715 27.5192 8.19299L28.111 7.73206L28.2761 7.60217L27.5183 8.19202C26.4925 6.87315 25.4439 6.63174 22.7214 6.07776V6.07678C20.5091 5.63351 18.2579 5.41289 16.0017 5.41663L15.9997 4.1842V4.66663L16.0017 5.41663H15.9997C13.6355 5.41665 11.3723 5.65078 9.279 6.07776C6.55555 6.63329 5.5069 6.87293 4.48115 8.19202C3.45005 9.51772 3.4167 11.0164 3.4167 14.7164V17.2838C3.4167 20.984 3.45035 22.483 4.48115 23.8073C5.37871 24.9615 6.29406 25.2908 8.33271 25.7262L9.279 25.9225L10.072 26.0739C11.9398 26.4047 13.931 26.5836 15.9997 26.5836C18.3639 26.5836 20.6272 26.3494 22.7204 25.9225C25.4441 25.3669 26.4924 25.1265 27.5183 23.8073C28.5494 22.4816 28.5837 20.9839 28.5837 17.2838V14.7164ZM30.0837 17.2838C30.0837 20.7996 30.1169 22.9099 28.7028 24.7281C27.286 26.5503 25.6565 26.8545 23.0202 27.3922C20.8257 27.8398 18.4619 28.0836 15.9997 28.0836C13.5375 28.0836 11.1737 27.8389 8.9792 27.3912C6.34265 26.8547 4.71423 26.55 3.29756 24.7281V24.7291C1.88306 22.912 1.9167 20.7995 1.9167 17.2838V14.7164C1.9167 11.3105 1.88502 9.22315 3.16865 7.44299L3.29756 7.27112C4.71427 5.44947 6.34332 5.1457 8.9792 4.60803C11.1735 4.16045 13.5369 3.91769 15.9987 3.9176L15.9997 3.91663V3.9176C18.0619 3.91422 20.1198 4.0904 22.1501 4.44495L23.0183 4.60706L23.0202 4.60803C25.6568 5.14454 27.2852 5.44974 28.7019 7.27112C30.1163 9.08821 30.0837 11.2007 30.0837 14.7164V17.2838Z" fill="white"/>
<path d="M13.373 10.6598C14.0772 10.4744 14.7849 10.6473 15.5205 10.9518C16.2569 11.2566 17.1596 11.755 18.2891 12.3776C19.3258 12.9484 20.1606 13.407 20.7549 13.8287C21.3052 14.2193 21.7827 14.6674 21.9766 15.2799L22.0117 15.4049C22.1066 15.7958 22.1066 16.2035 22.0117 16.5943L21.9766 16.7203C21.7825 17.333 21.304 17.7804 20.7539 18.1705C20.1598 18.5918 19.3247 19.0504 18.2891 19.6217C17.1596 20.2443 16.2569 20.7436 15.5205 21.0485C14.7849 21.3529 14.0772 21.5249 13.373 21.3395C13.015 21.2465 12.6772 21.0891 12.377 20.8746L12.25 20.7779L12.2461 20.775L12.6826 20.234L12.7393 20.1647L12.2461 20.775C11.6642 20.3045 11.4455 19.6234 11.3467 18.8805C11.2489 18.1448 11.25 17.1816 11.25 15.9996C11.25 14.8178 11.2489 13.8553 11.3467 13.1197C11.4454 12.3768 11.6642 11.6957 12.2461 11.2252C12.5738 10.9605 12.961 10.7671 13.373 10.6598ZM12.75 15.9996C12.75 17.2253 12.7515 18.0689 12.833 18.6822C12.9133 19.2865 13.0525 19.4983 13.1875 19.608C13.3537 19.74 13.5464 19.8352 13.752 19.8883L13.7549 19.8893C13.9773 19.9478 14.306 19.9272 14.9473 19.6617C15.5878 19.3965 16.4035 18.9482 17.5645 18.3082L18.9355 17.5416C19.3189 17.32 19.6326 17.1271 19.8867 16.9469C20.4013 16.582 20.5217 16.3702 20.5537 16.2399C20.592 16.0818 20.5919 15.9184 20.5537 15.7604C20.5217 15.6296 20.4012 15.4174 19.8867 15.0524C19.506 14.7822 18.9921 14.4833 18.3076 14.1022L17.5645 13.692C16.4035 13.052 15.5878 12.6027 14.9473 12.3375C14.306 12.0721 13.9773 12.0524 13.7549 12.111H13.752L13.5908 11.4889L13.5635 11.3854L13.752 12.111C13.5386 12.1664 13.3452 12.2646 13.1885 12.3912L13.1377 12.4371C13.0191 12.559 12.9035 12.7868 12.833 13.317C12.7515 13.9303 12.75 14.7739 12.75 15.9996Z" fill="white"/>
</svg>
