<svg width="32" height="32" viewBox="0 0 32 32" fill="none" xmlns="http://www.w3.org/2000/svg">
<path d="M27.9163 16.0003C27.9163 12.9931 27.9153 10.8128 27.6917 9.14973C27.471 7.5083 27.0463 6.48281 26.2816 5.71809C25.5169 4.95355 24.4913 4.52958 22.8499 4.30891C21.1867 4.08537 19.0067 4.08333 16.0003 4.08333C12.9931 4.08333 10.8128 4.08536 9.14972 4.30891C7.50834 4.52958 6.48278 4.95339 5.71808 5.71809C4.95337 6.4828 4.52957 7.50896 4.3089 9.15071C4.08537 10.8139 4.08331 12.9939 4.08331 16.0003C4.08331 19.0073 4.08536 21.1869 4.3089 22.8499C4.52954 24.4913 4.95344 25.5168 5.71808 26.2816C6.48279 27.0463 7.50895 27.4711 9.1507 27.6917C10.8139 27.9152 12.994 27.9163 16.0003 27.9163C19.0072 27.9163 21.1869 27.9153 22.8499 27.6917C24.4914 27.4711 25.5168 27.0463 26.2816 26.2816C27.0462 25.5169 27.471 24.4915 27.6917 22.8499C27.9153 21.1867 27.9163 19.0067 27.9163 16.0003ZM29.4163 16.0003C29.4163 18.9642 29.4181 21.2628 29.178 23.0491C28.935 24.8571 28.4321 26.2522 27.3421 27.3421C26.2522 28.432 24.8578 28.935 23.0501 29.1781C21.2639 29.4182 18.9649 29.4163 16.0003 29.4163C13.0362 29.4163 10.7369 29.4182 8.9505 29.1781C7.14262 28.935 5.74748 28.4321 4.65753 27.3421C3.56775 26.2522 3.0646 24.8578 2.82159 23.0501C2.58149 21.2639 2.58331 18.965 2.58331 16.0003C2.58331 13.0362 2.58149 10.7369 2.82159 8.95052C3.0646 7.14261 3.56758 5.7475 4.65753 4.65755C5.74746 3.56762 7.14269 3.06462 8.9505 2.82161C10.7367 2.58156 13.0358 2.58333 16.0003 2.58333C18.9641 2.58333 21.2628 2.58155 23.0491 2.82161C24.857 3.0646 26.2522 3.5677 27.3421 4.65755C28.432 5.74747 28.935 7.1427 29.178 8.95052C29.4181 10.7367 29.4163 13.0358 29.4163 16.0003Z" fill="white"/>
<path d="M21.25 15.9997C21.2499 14.6074 20.6964 13.2722 19.7119 12.2878C18.7274 11.3033 17.3923 10.7497 16 10.7497C14.6077 10.7497 13.2726 11.3033 12.2881 12.2878C11.3036 13.2722 10.7501 14.6074 10.75 15.9997C10.75 17.3921 11.3035 18.728 12.2881 19.7126C13.2726 20.6969 14.6078 21.2497 16 21.2497C17.3922 21.2497 18.7274 20.6969 19.7119 19.7126C20.6965 18.728 21.25 17.3921 21.25 15.9997ZM23.3438 7.91666C23.758 7.91666 24.0938 8.25245 24.0938 8.66666C24.0938 9.08088 23.758 9.41666 23.3438 9.41666H23.3311C22.9168 9.41666 22.5811 9.08088 22.5811 8.66666C22.5811 8.25245 22.9168 7.91666 23.3311 7.91666H23.3438ZM22.75 15.9997C22.75 17.7898 22.0392 19.5073 20.7734 20.7731C19.5076 22.039 17.7902 22.7497 16 22.7497C14.2098 22.7497 12.4924 22.039 11.2266 20.7731C9.96079 19.5073 9.25 17.7898 9.25 15.9997C9.25009 14.2097 9.96097 12.493 11.2266 11.2272C12.4924 9.96134 14.2098 9.24967 16 9.24967C17.7902 9.24967 19.5076 9.96134 20.7734 11.2272C22.039 12.493 22.7499 14.2097 22.75 15.9997Z" fill="white"/>
</svg>
